Coordinates
version=1
nRows=8
nColumns=42
inDegrees=yes

Units are S.I. units (second, meters, Newtons, ...)
If the header above contains a line with 'inDegrees', this indicates whether rotational values are in degrees (yes) or radians (no).

endheader
time	pelvis_tilt	pelvis_list	pelvis_rotation	pelvis_tx	pelvis_ty	pelvis_tz	hip_flexion_r	hip_adduction_r	hip_rotation_r	knee_angle_r	knee_adduction_r	knee_angle_r_beta	ankle_angle_r	subtalar_angle_r	mtp_angle_r	hip_flexion_l	hip_adduction_l	hip_rotation_l	knee_angle_l	knee_adduction_l	knee_angle_l_beta	ankle_angle_l	subtalar_angle_l	mtp_angle_l	lumbar_extension	lumbar_bending	lumbar_rotation	arm_flex_r	arm_add_r	arm_rot_r	elbow_flex_r	pro_sup_r	wrist_flex_r	wrist_dev_r	arm_flex_l	arm_add_l	arm_rot_l	elbow_flex_l	pro_sup_l	wrist_flex_l	wrist_dev_l
      0.30000000	     17.39226871	      3.71328578	      5.54087883	     -1.55598538	      0.89331913	     -0.01856182	      6.69497101	     -1.32273428	    -18.74374912	     31.93734949	     -5.50819384	      0.55741190	     13.63515620	      3.08892104	     -9.56373784	    -24.48980036	     -1.35769149	     -1.50537782	     45.29413735	      1.83057118	      0.79053183	      0.60564876	     -6.13086512	     -9.56373784	    -38.69712704	     -0.81400372	     -3.29399582	      1.77366530	     -5.80586321	    -35.21028879	     27.81874913	     90.00000001	      0.00000000	      0.00000000	      7.91852345	     -8.07558831	    -31.16221467	     37.84221303	     90.00000001	      0.00000000	      0.00000000
      0.31000000	     17.46527768	      3.49260848	      5.37693847	     -1.54752994	      0.89424937	     -0.01728311	      6.00532339	     -0.85520761	    -19.25582959	     31.76660580	     -5.85313943	      0.55443186	     14.30643580	      3.76769128	     -9.49269565	    -23.27060556	     -1.57114333	     -0.83502028	     47.83989818	      2.19815729	      0.83496374	     -0.01378875	     -7.99507869	     -9.49269565	    -38.76460820	     -0.65389254	     -3.21077340	      2.08784195	     -5.92032057	    -34.50201168	     28.25717230	     90.00000001	      0.00000000	      0.00000000	      7.70200677	     -7.95478832	    -31.33434322	     37.68633945	     90.00000001	      0.00000000	      0.00000000
      0.32000000	     17.54335795	      3.41530730	      5.26596523	     -1.53937905	      0.89529036	     -0.01631505	      5.30549035	     -0.61758857	    -19.80405614	     31.62980199	     -6.12656619	      0.55204419	     15.00338298	      4.70835132	     -9.40983759	    -22.00210429	     -1.55127248	      0.09812808	     50.26238059	      2.60704523	      0.87724403	     -0.61453777	    -10.46993815	     -9.40983759	    -38.89019868	     -0.57671118	     -3.23639772	      2.40672397	     -6.06500331	    -33.55179254	     28.75979649	     90.00000001	      0.00000000	      0.00000000	      7.54153566	     -7.84116193	    -31.42780827	     37.51144128	     90.00000001	      0.00000000	      0.00000000
      0.33000000	     17.60160872	      3.37755831	      5.20311584	     -1.53141502	      0.89626027	     -0.01545413	      4.60112439	     -0.47619929	    -20.23492699	     31.48090384	     -6.24370032	      0.54944542	     15.72238606	      5.48645455	     -9.31787912	    -20.61810662	     -1.50268164	      0.77484178	     52.63703777	      2.85267716	      0.91868962	     -0.86770387	    -12.72108711	     -9.31787912	    -39.02280847	     -0.52371316	     -3.29134682	      2.73494768	     -6.18334544	    -32.56671012	     29.26893992	     90.00000001	      0.00000000	      0.00000000	      7.42022876	     -7.74469816	    -31.42889070	     37.35719181	     90.00000001	      0.00000000	      0.00000000
      0.34000000	     17.66318841	      3.24770171	      5.11819150	     -1.52359668	      0.89718460	     -0.01448084	      3.87769681	     -0.15860989	    -20.34041033	     31.26867472	     -6.29898941	      0.54574133	     16.37710263	      5.84819841	     -9.26131995	    -19.16377715	     -1.53947111	      1.01972170	     54.92431753	      2.81963970	      0.95861018	     -0.55713039	    -14.17181420	     -9.26131995	    -39.15733591	     -0.41657525	     -3.22333809	      3.12306125	     -6.30465327	    -31.87824931	     29.73092330	     90.00000001	      0.00000000	      0.00000000	      7.32699401	     -7.62468479	    -31.35530238	     37.22810687	     90.00000001	      0.00000000	      0.00000000
      0.35000000	     17.87815532	      3.31524266	      5.02329460	     -1.51587172	      0.89848467	     -0.01376958	      2.90309061	     -0.13302379	    -20.29091702	     31.00033194	     -6.13136766	      0.54105786	     16.79931266	      5.99552714	     -9.23696117	    -17.93154068	     -1.26546352	      0.94597234	     56.82984107	      2.36787185	      0.99186784	      0.28176768	    -15.12432172	     -9.23696117	    -39.48401700	     -0.47103108	     -3.24853413	      3.61086717	     -6.37437716	    -31.49205146	     30.12262337	     90.00000001	      0.00000000	      0.00000000	      7.28834586	     -7.50815047	    -31.26141573	     37.10644866	     90.00000001	      0.00000000	      0.00000000
      0.36000000	     17.90495236	      3.21499951	      5.01256140	     -1.50839738	      0.89934666	     -0.01303784	      2.17659600	      0.10694158	    -20.19887715	     30.71709959	     -5.99376060	      0.53611452	     17.35476394	      6.13822073	     -9.20986168	    -16.33325193	     -1.25734156	      0.77387727	     58.80228579	      1.96644416	      1.02629349	      1.16559318	    -16.22277801	     -9.20986168	    -39.61220036	     -0.35738910	     -3.22252771	      4.07868323	     -6.49253001	    -30.87634773	     30.56773243	     90.00000001	      0.00000000	      0.00000000	      7.26486608	     -7.38733968	    -31.13099589	     36.96701424	     90.00000001	      0.00000000	      0.00000000
      0.37000000	     17.66538589	      2.95752022	      4.94183657	     -1.50127250	      0.89957401	     -0.01183360	      1.93874794	      0.60606516	    -20.05302875	     30.62767463	     -6.10017332	      0.53455376	     17.77594324	      6.10194066	     -9.14394028	    -14.30460520	     -1.54837698	      0.65365265	     60.82991856	      1.92746724	      1.06168236	      2.04028540	    -17.01370518	     -9.14394028	    -39.47903654	     -0.22133171	     -3.00584611	      4.38972876	     -6.70520343	    -29.27557999	     31.12816787	     90.00000001	      0.00000000	      0.00000000	      7.29962529	     -7.30840203	    -30.92017330	     36.81115242	     90.00000001	      0.00000000	      0.00000000
